<svg xmlns="http://www.w3.org/2000/svg" xmlns:xlink="http://www.w3.org/1999/xlink" viewBox="0 0 28 35" version="1.1" x="0px" y="0px" fill="#fff"><title>i28_exit</title><desc>Created with Sketch.</desc><g stroke="none" stroke-width="1" fill="#none" fill-rule="evenodd"><g transform="translate(-338.000000, -327.000000)" fill="#fff" fill-rule="nonzero"><g transform="translate(338.000000, 327.000000)"><path d="M23.758226,14.8138207 L20.5997793,17.9722674 C20.2953994,18.2766473 19.7874176,18.2780972 19.4749981,17.9656777 C19.1604005,17.6510802 19.1596284,17.1496766 19.4684084,16.8408965 L21.309305,15 L12.7506537,15 C12.3360791,15 12,14.6671014 12,14.25 C12,13.8357864 12.3334731,13.5 12.7506537,13.5 L21.3590286,13.5 L19.4684084,11.6093798 C19.1596284,11.3005998 19.1604005,10.7991962 19.4749981,10.4845986 C19.7874176,10.1721792 20.2953994,10.173629 20.5997793,10.478009 L23.758226,13.6364557 C23.8822984,13.760528 23.956392,13.9157004 23.9802296,14.0773573 C23.9931606,14.13271 24,14.1904982 24,14.25 C24,14.4052276 23.9531672,14.549441 23.8726467,14.6690952 C23.8409743,14.7205939 23.8028297,14.769217 23.758226,14.8138207 Z M20.5,23 C20.5,22.5857864 20.8357864,22.25 21.25,22.25 C21.6642136,22.25 22,22.5857864 22,23 L22,23.25 C22,24.2164983 21.2164983,25 20.25,25 L7.25,25 C6.28350169,25 5.5,24.2164983 5.5,23.25 L5.5,4.25 C5.5,3.28350169 6.28350169,2.5 7.25,2.5 L20.25,2.5 C21.2164983,2.5 22,3.28350169 22,4.25 L22,5.5 C22,5.91421356 21.6642136,6.25 21.25,6.25 C20.8357864,6.25 20.5,5.91421356 20.5,5.5 L20.5,4.25 C20.5,4.11192881 20.3880712,4 20.25,4 L7.25,4 C7.11192881,4 7,4.11192881 7,4.25 L7,23.25 C7,23.3880712 7.11192881,23.5 7.25,23.5 L20.25,23.5 C20.3880712,23.5 20.5,23.3880712 20.5,23.25 L20.5,23 Z"/></g></g></g></svg>